<svg xmlns="http://www.w3.org/2000/svg" width="40" height="40" fill="none"><mask id="a" width="33" height="28" x="3" y="10" maskUnits="userSpaceOnUse" style="mask-type:alpha"><path fill="#fff" fill-rule="evenodd" d="M3.3 10.9H36v27H3.3v-27Z" clip-rule="evenodd"/></mask><g mask="url(#a)"><path fill="#fff" fill-rule="evenodd" d="M11.2 13.4c-.7 0-3.2.3-3.9 4.1L6 27.5c-.4 2.8 0 4.8 1 6 1 1.3 2.9 1.9 5.7 1.9h13.9c1.7 0 4.1-.4 5.6-2 1.1-1.4 1.5-3.3 1.1-5.9l-1.3-10c-.5-2.5-2-4.1-3.8-4.1h-17Zm15.4 24.5h-14c-3.5 0-6-.9-7.5-2.7-1.6-1.8-2.1-4.5-1.6-8l1.3-10c.9-4.7 4-6.3 6.4-6.3h17c2.4 0 5.3 1.6 6.3 6.1l1.3 10.2c.5 3.3-.1 6-1.7 7.8-1.7 1.9-4.2 2.9-7.5 2.9Z" clip-rule="evenodd"/></g><path fill="#fff" fill-rule="evenodd" d="M26.8 13c-.7 0-1.2-.5-1.2-1.2a6 6 0 0 0-6-6 6 6 0 0 0-6 6 1.3 1.3 0 0 1-2.5 0 8.5 8.5 0 0 1 8.5-8.5c4.7 0 8.5 3.8 8.5 8.5 0 .7-.6 1.2-1.3 1.2ZM24.6 20.5h-.1a1.3 1.3 0 0 1 0-2.5c.7 0 1.3.6 1.3 1.3 0 .7-.5 1.2-1.2 1.2ZM14.9 20.5h-.1a1.3 1.3 0 0 1 0-2.5c.7 0 1.3.6 1.3 1.3 0 .7-.6 1.2-1.2 1.2Z" clip-rule="evenodd"/></svg>