<svg xmlns="http://www.w3.org/2000/svg" width="40" height="40" fill="none"><mask id="a" width="33" height="33" x="3" y="3" maskUnits="userSpaceOnUse" style="mask-type:alpha"><path fill="#fff" fill-rule="evenodd" d="M3.33 3.33H35.8V35.8H3.33V3.33Z" clip-rule="evenodd"/></mask><g mask="url(#a)"><path fill="#fff" fill-rule="evenodd" d="M19.56 5.83A13.75 13.75 0 0 0 5.83 19.56c0 7.57 6.16 13.73 13.73 13.73S33.3 27.13 33.3 19.56 27.13 5.83 19.56 5.83Zm0 29.96A16.25 16.25 0 0 1 3.33 19.56c0-8.95 7.28-16.23 16.23-16.23S35.8 10.61 35.8 19.56 28.51 35.8 19.56 35.8Z" clip-rule="evenodd"/></g><mask id="b" width="10" height="9" x="28" y="29" maskUnits="userSpaceOnUse" style="mask-type:alpha"><path fill="#fff" fill-rule="evenodd" d="M28.73 29.51h8.38v8.36h-8.38V29.5Z" clip-rule="evenodd"/></mask><g mask="url(#b)"><path fill="#fff" fill-rule="evenodd" d="M35.86 37.87c-.32 0-.64-.12-.89-.37l-5.87-5.85a1.25 1.25 0 0 1 1.77-1.77l5.87 5.85a1.25 1.25 0 0 1-.88 2.14Z" clip-rule="evenodd"/></g></svg>